<svg width="38" height="35" viewBox="0 0 38 35" fill="none" xmlns="http://www.w3.org/2000/svg">
<g clip-path="url(#clip0_1_136)">
<path d="M8.10278 34.3932C11.7271 33.6671 14.182 30.9335 13.5859 28.2874C12.9898 25.6413 9.56856 24.0848 5.94425 24.8108C2.31994 25.5369 -0.13494 28.2706 0.461124 30.9167C1.05719 33.5628 4.47848 35.1193 8.10278 34.3932Z" stroke="#C59C66" stroke-width="1.3" stroke-miterlimit="10" stroke-linecap="round" stroke-linejoin="round"/>
<path d="M31.6973 31.4298C35.3216 30.7037 37.7765 27.97 37.1805 25.3239C36.5844 22.6778 33.1631 21.1213 29.5388 21.8474C25.9145 22.5735 23.4596 25.3071 24.0557 27.9532C24.6517 30.5993 28.073 32.1558 31.6973 31.4298Z" stroke="#C59C66" stroke-width="1.3" stroke-miterlimit="10" stroke-linecap="round" stroke-linejoin="round"/>
<path d="M13.6337 28.3673V5.71427C13.6337 4.7959 14.2829 4.08162 15.2567 3.87753L34.9498 0.408146C36.1401 0.204064 37.2221 1.02039 37.2221 2.24488V26.4286" stroke="#C59C66" stroke-width="1.3" stroke-miterlimit="10" stroke-linecap="round" stroke-linejoin="round"/>
<path d="M13.5255 9.89798L37.2221 5.81635" stroke="#C59C66" stroke-width="1.3" stroke-miterlimit="10" stroke-linecap="round" stroke-linejoin="round"/>
</g>
<defs>
<clipPath id="clip0_1_136">
<rect width="37.7632" height="35" fill="white"/>
</clipPath>
</defs>
</svg>
