<svg width="38" height="38" viewBox="0 0 38 38" fill="none" xmlns="http://www.w3.org/2000/svg">
<path d="M27.2199 4.24231V5.23518L30.8132 11.2827L27.4894 12.2756L30.2742 18.8646L18.9551 33.3064L25.2435 7.94302L21.1111 5.86701C20.7518 6.40858 20.1229 6.85989 19.4043 6.85989H18.8653C18.1466 6.85989 17.5177 6.49884 17.1584 5.95727L13.2955 7.85276L19.0449 33.9383L18.9551 37.5487L19.0449 33.9383L8.44445 18.9549L11.2293 12.3658L7.90544 11.373L11.0497 6.04754V4.24231L0.359344 7.58198L7.63594 37.639H30.2742L37.5508 7.58198L27.2199 4.24231Z" stroke="white" stroke-width="1.3" stroke-miterlimit="10" stroke-linecap="round" stroke-linejoin="round"/>
<path d="M11.0497 7.3112V6.04755L7.90546 11.373L11.2293 12.3658L8.44446 18.9549L19.0449 33.848L13.2955 7.76251L12.3972 8.12356C11.7683 8.4846 11.0497 7.94303 11.0497 7.3112Z" stroke="white" stroke-width="1.3" stroke-miterlimit="10" stroke-linecap="round" stroke-linejoin="round"/>
<path d="M25.7825 8.30406L25.2435 8.03328L18.9551 33.3967L30.2742 18.9549L27.4894 12.3658L30.8132 11.3729L27.2199 5.32544V7.40145C27.2199 8.12354 26.4113 8.57484 25.7825 8.30406Z" stroke="white" stroke-width="1.3" stroke-miterlimit="10" stroke-linecap="round" stroke-linejoin="round"/>
<path d="M27.2199 4.24231V1.53447C27.2199 0.812382 26.5012 0.361075 25.8723 0.631859L21.201 2.88839C21.3806 3.15918 21.4705 3.42996 21.4705 3.70074" stroke="white" stroke-width="1.3" stroke-miterlimit="10" stroke-linecap="round" stroke-linejoin="round"/>
<path d="M16.8889 3.79099C16.8889 3.42995 17.0686 3.15916 17.2482 2.88838L12.487 0.541588C11.8582 0.270804 11.1395 0.722111 11.1395 1.4442V4.2423" stroke="white" stroke-width="1.3" stroke-miterlimit="10" stroke-linecap="round" stroke-linejoin="round"/>
<path d="M11.0497 4.15204V6.04753" stroke="white" stroke-width="1.3" stroke-miterlimit="10" stroke-linecap="round" stroke-linejoin="round"/>
<path d="M25.2435 7.94301L25.7825 8.2138C26.4113 8.57484 27.13 8.03328 27.13 7.31119V5.32544" stroke="white" stroke-width="1.3" stroke-miterlimit="10" stroke-linecap="round" stroke-linejoin="round"/>
<path d="M21.1111 2.97865C20.7518 2.34682 20.1229 1.98578 19.4043 1.98578H18.8653C18.2364 1.98578 17.6076 2.34682 17.2482 2.79813" stroke="white" stroke-width="1.3" stroke-miterlimit="10" stroke-linecap="round" stroke-linejoin="round"/>
<path d="M17.1584 5.86699C17.5177 6.40856 18.1466 6.76961 18.8652 6.76961H19.4941C20.2128 6.76961 20.8416 6.40856 21.2009 5.77673" stroke="white" stroke-width="1.3" stroke-miterlimit="10" stroke-linecap="round" stroke-linejoin="round"/>
<path d="M16.8889 3.79102C16.8889 3.88128 16.8889 3.97154 16.8889 4.0618V4.87415C16.8889 5.2352 16.9787 5.59624 17.1584 5.95729" stroke="white" stroke-width="1.3" stroke-miterlimit="10" stroke-linecap="round" stroke-linejoin="round"/>
<path d="M21.1111 5.86702C21.2908 5.59623 21.3806 5.23519 21.3806 4.78388V3.97153C21.3806 3.88127 21.3806 3.79101 21.3806 3.70074" stroke="white" stroke-width="1.3" stroke-miterlimit="10" stroke-linecap="round" stroke-linejoin="round"/>
</svg>
