<svg width="52" height="35" viewBox="0 0 52 35" fill="none" xmlns="http://www.w3.org/2000/svg">
<g opacity="0.55" clip-path="url(#clip0_1_142)">
<path d="M10.4573 11.2043C15.997 11.2043 20.4878 9.00665 20.4878 6.29574C20.4878 3.58483 15.997 1.38721 10.4573 1.38721C4.91764 1.38721 0.426834 3.58483 0.426834 6.29574C0.426834 9.00665 4.91764 11.2043 10.4573 11.2043Z" stroke="white" stroke-width="1.3" stroke-miterlimit="10" stroke-linecap="round" stroke-linejoin="round"/>
<path d="M0.426834 6.40247V20.4878V20.5945C0.426834 23.2622 4.90854 25.5031 10.4573 25.5031" stroke="white" stroke-width="1.3" stroke-miterlimit="10" stroke-linecap="round" stroke-linejoin="round"/>
<path d="M20.4878 10.1372V6.40247" stroke="white" stroke-width="1.3" stroke-miterlimit="10" stroke-linecap="round" stroke-linejoin="round"/>
<path d="M10.4573 11.2043C15.997 11.2043 20.4878 9.00665 20.4878 6.29574C20.4878 3.58483 15.997 1.38721 10.4573 1.38721C4.91764 1.38721 0.426834 3.58483 0.426834 6.29574C0.426834 9.00665 4.91764 11.2043 10.4573 11.2043Z" stroke="white" stroke-width="1.3" stroke-miterlimit="10" stroke-linecap="round" stroke-linejoin="round"/>
<path d="M10.4573 7.57624C12.461 7.57624 14.0854 6.9074 14.0854 6.08234C14.0854 5.25728 12.461 4.58844 10.4573 4.58844C8.4536 4.58844 6.82927 5.25728 6.82927 6.08234C6.82927 6.9074 8.4536 7.57624 10.4573 7.57624Z" stroke="white" stroke-width="1.3" stroke-miterlimit="10" stroke-linecap="round" stroke-linejoin="round"/>
<path d="M30.5183 13.5518L46.7378 0.426819" stroke="white" stroke-width="1.3" stroke-miterlimit="10" stroke-linecap="round" stroke-linejoin="round"/>
<path d="M21.0213 20.2744C26.561 20.2744 31.0518 18.0768 31.0518 15.3659C31.0518 12.655 26.561 10.4573 21.0213 10.4573C15.4817 10.4573 10.9909 12.655 10.9909 15.3659C10.9909 18.0768 15.4817 20.2744 21.0213 20.2744Z" stroke="white" stroke-width="1.3" stroke-miterlimit="10" stroke-linecap="round" stroke-linejoin="round"/>
<path d="M10.9909 15.3658V29.4512V29.5579C10.9909 32.2256 15.4726 34.4665 21.0214 34.4665C26.5701 34.4665 31.0518 32.3323 31.0518 29.5579V29.4512V15.3658" stroke="white" stroke-width="1.3" stroke-miterlimit="10" stroke-linecap="round" stroke-linejoin="round"/>
<path d="M21.0213 20.2744C26.561 20.2744 31.0518 18.0768 31.0518 15.3659C31.0518 12.655 26.561 10.4573 21.0213 10.4573C15.4817 10.4573 10.9909 12.655 10.9909 15.3659C10.9909 18.0768 15.4817 20.2744 21.0213 20.2744Z" stroke="white" stroke-width="1.3" stroke-miterlimit="10" stroke-linecap="round" stroke-linejoin="round"/>
<path d="M20.9146 16.753C22.8594 16.753 24.436 16.0364 24.436 15.1524C24.436 14.2684 22.8594 13.5518 20.9146 13.5518C18.9699 13.5518 17.3933 14.2684 17.3933 15.1524C17.3933 16.0364 18.9699 16.753 20.9146 16.753Z" stroke="white" stroke-width="1.3" stroke-miterlimit="10" stroke-linecap="round" stroke-linejoin="round"/>
<path d="M21.3415 30.4116L50.7927 2.24084" stroke="white" stroke-width="1.3" stroke-miterlimit="10" stroke-linecap="round" stroke-linejoin="round"/>
</g>
<defs>
<clipPath id="clip0_1_142">
<rect width="51.2195" height="35" fill="white"/>
</clipPath>
</defs>
</svg>
