<svg width="20" height="16" viewBox="0 0 20 16" fill="none" xmlns="http://www.w3.org/2000/svg">
<path d="M12.7873 1.66075C12.7873 1.53686 12.6596 1.41296 12.4894 1.41296H7.51069C7.38303 1.41296 7.25537 1.53686 7.25537 1.66075V3.51916H12.7873V1.66075V1.66075Z" stroke="#C59C66" stroke-width="1.1" stroke-miterlimit="10" stroke-linecap="round" stroke-linejoin="round"/>
<path d="M7.25532 3.51917H2.14894C1.76596 3.51917 1.42554 3.84955 1.42554 4.26253V13.8849C1.42554 14.2566 1.76596 14.587 2.14894 14.587H17.8511C18.234 14.587 18.5745 14.2566 18.5745 13.8849V4.26253C18.5745 3.89085 18.234 3.56046 17.8511 3.56046H12.7872" stroke="#C59C66" stroke-width="1.1" stroke-miterlimit="10" stroke-linecap="round" stroke-linejoin="round"/>
<path d="M11.8086 8.26839C12.5841 8.26839 13.2128 7.65823 13.2128 6.90556C13.2128 6.15289 12.5841 5.54272 11.8086 5.54272C11.033 5.54272 10.4043 6.15289 10.4043 6.90556C10.4043 7.65823 11.033 8.26839 11.8086 8.26839Z" stroke="#C59C66" stroke-width="1.1" stroke-miterlimit="10" stroke-linecap="round" stroke-linejoin="round"/>
<path d="M5.46814 3.68433V14.5044" stroke="#C59C66" stroke-width="1.1" stroke-miterlimit="10" stroke-linecap="round" stroke-linejoin="round"/>
<path d="M14.532 3.68433V14.5044" stroke="#C59C66" stroke-width="1.1" stroke-miterlimit="10" stroke-linecap="round" stroke-linejoin="round"/>
</svg>
