<svg width="20" height="18" viewBox="0 0 20 18" fill="none" xmlns="http://www.w3.org/2000/svg">
<path d="M17.2922 9.52636C17.2922 13.8153 13.8153 17.2922 9.52636 17.2922C5.23743 17.2922 1.76057 13.8153 1.76057 9.52636C1.76057 5.23743 5.23743 1.76057 9.52636 1.76057C13.8153 1.76057 17.2922 5.23743 17.2922 9.52636Z" stroke="#C59C66" stroke-width="1.1" stroke-miterlimit="10" stroke-linecap="round" stroke-linejoin="round"/>
<path d="M10.3448 9.52626C10.3448 9.97826 9.97838 10.3447 9.52638 10.3447C9.07438 10.3447 8.70796 9.97826 8.70796 9.52626C8.70796 9.07426 9.07438 8.70784 9.52638 8.70784C9.97838 8.70784 10.3448 9.07426 10.3448 9.52626Z" stroke="#C59C66" stroke-width="1.1" stroke-miterlimit="10" stroke-linecap="round" stroke-linejoin="round"/>
<mask id="path-3-inside-1" fill="white">
<path d="M10.158 10.7894L9.84216 13.2105L9.52637 15.6842L9.15795 13.2105L8.84216 10.7894"/>
</mask>
<path d="M11.2487 10.9317C11.3273 10.3293 10.9026 9.77724 10.3002 9.69867C9.69782 9.62009 9.14577 10.0447 9.06719 10.6472L11.2487 10.9317ZM9.84216 13.2105L8.7514 13.0682L8.75102 13.0712L9.84216 13.2105ZM9.52637 15.6842L8.43837 15.8462C8.51929 16.3895 8.9886 16.7898 9.53786 16.7841C10.0871 16.7784 10.548 16.3683 10.6175 15.8235L9.52637 15.6842ZM9.15795 13.2105L8.06719 13.3528C8.06805 13.3594 8.06897 13.3659 8.06995 13.3725L9.15795 13.2105ZM9.93292 10.6472C9.85435 10.0447 9.3023 9.62009 8.69989 9.69867C8.09748 9.77724 7.67283 10.3293 7.7514 10.9317L9.93292 10.6472ZM9.06719 10.6472L8.7514 13.0682L10.9329 13.3528L11.2487 10.9317L9.06719 10.6472ZM8.75102 13.0712L8.43523 15.5449L10.6175 15.8235L10.9333 13.3498L8.75102 13.0712ZM10.6144 15.5221L10.246 13.0484L8.06995 13.3725L8.43837 15.8462L10.6144 15.5221ZM10.2487 13.0682L9.93292 10.6472L7.7514 10.9317L8.06719 13.3528L10.2487 13.0682Z" fill="#C59C66" mask="url(#path-3-inside-1)"/>
<mask id="path-5-inside-2" fill="white">
<path d="M8.84216 8.31576L9.15795 5.84207L9.52637 3.42102L9.84216 5.84207L10.158 8.31576"/>
</mask>
<path d="M7.75102 8.17646C7.67409 8.77908 8.10025 9.32997 8.70287 9.4069C9.30549 9.48383 9.85638 9.05767 9.93331 8.45505L7.75102 8.17646ZM9.15795 5.84207L8.07047 5.67659C8.06915 5.6853 8.06792 5.69403 8.06681 5.70278L9.15795 5.84207ZM9.52637 3.42102L10.6171 3.27875C10.5462 2.73529 10.0861 2.32692 9.5381 2.32108C8.99007 2.31524 8.52134 2.71371 8.43889 3.25553L9.52637 3.42102ZM9.84216 5.84207L10.9333 5.70278L10.9329 5.6998L9.84216 5.84207ZM9.06681 8.45505C9.14374 9.05767 9.69462 9.48383 10.2972 9.4069C10.8999 9.32997 11.326 8.77908 11.2491 8.17646L9.06681 8.45505ZM9.93331 8.45505L10.2491 5.98137L8.06681 5.70278L7.75102 8.17646L9.93331 8.45505ZM10.2454 6.00756L10.6139 3.58651L8.43889 3.25553L8.07047 5.67659L10.2454 6.00756ZM8.43561 3.56329L8.7514 5.98435L10.9329 5.6998L10.6171 3.27875L8.43561 3.56329ZM8.75102 5.98137L9.06681 8.45505L11.2491 8.17646L10.9333 5.70278L8.75102 5.98137Z" fill="#C59C66" mask="url(#path-5-inside-2)"/>
</svg>
