<svg width="25" height="17" viewBox="0 0 25 17" fill="none" xmlns="http://www.w3.org/2000/svg">
<g clip-path="url(#clip0)">
<path d="M5.09054 5.44212C7.78723 5.44212 9.97332 4.3747 9.97332 3.05798C9.97332 1.74125 7.78723 0.673828 5.09054 0.673828C2.39386 0.673828 0.207764 1.74125 0.207764 3.05798C0.207764 4.3747 2.39386 5.44212 5.09054 5.44212Z" stroke="#C59C66" stroke-width="1.1" stroke-miterlimit="10" stroke-linecap="round" stroke-linejoin="round"/>
<path d="M0.207764 3.10974V9.95121V10.003C0.207764 11.2988 2.38943 12.3872 5.09054 12.3872" stroke="#C59C66" stroke-width="1.1" stroke-miterlimit="10" stroke-linecap="round" stroke-linejoin="round"/>
<path d="M9.97327 4.92377V3.10974" stroke="#C59C66" stroke-width="1.1" stroke-miterlimit="10" stroke-linecap="round" stroke-linejoin="round"/>
<path d="M5.09054 5.44212C7.78723 5.44212 9.97332 4.3747 9.97332 3.05798C9.97332 1.74125 7.78723 0.673828 5.09054 0.673828C2.39386 0.673828 0.207764 1.74125 0.207764 3.05798C0.207764 4.3747 2.39386 5.44212 5.09054 5.44212Z" stroke="#C59C66" stroke-width="1.1" stroke-miterlimit="10" stroke-linecap="round" stroke-linejoin="round"/>
<path d="M5.09057 3.67986C6.06597 3.67986 6.85669 3.35499 6.85669 2.95425C6.85669 2.5535 6.06597 2.22864 5.09057 2.22864C4.11518 2.22864 3.32446 2.5535 3.32446 2.95425C3.32446 3.35499 4.11518 3.67986 5.09057 3.67986Z" stroke="#C59C66" stroke-width="1.1" stroke-miterlimit="10" stroke-linecap="round" stroke-linejoin="round"/>
<path d="M14.8561 6.58228L22.7516 0.207275" stroke="#C59C66" stroke-width="1.1" stroke-miterlimit="10" stroke-linecap="round" stroke-linejoin="round"/>
<path d="M10.2331 9.84752C12.9298 9.84752 15.1159 8.7801 15.1159 7.46337C15.1159 6.14664 12.9298 5.07922 10.2331 5.07922C7.53644 5.07922 5.35034 6.14664 5.35034 7.46337C5.35034 8.7801 7.53644 9.84752 10.2331 9.84752Z" stroke="#C59C66" stroke-width="1.1" stroke-miterlimit="10" stroke-linecap="round" stroke-linejoin="round"/>
<path d="M5.35034 7.46338V14.3048V14.3567C5.35034 15.6524 7.53201 16.7408 10.2331 16.7408C12.9342 16.7408 15.1159 15.7042 15.1159 14.3567V14.3048V7.46338" stroke="#C59C66" stroke-width="1.1" stroke-miterlimit="10" stroke-linecap="round" stroke-linejoin="round"/>
<path d="M10.2331 9.84752C12.9298 9.84752 15.1159 8.7801 15.1159 7.46337C15.1159 6.14664 12.9298 5.07922 10.2331 5.07922C7.53644 5.07922 5.35034 6.14664 5.35034 7.46337C5.35034 8.7801 7.53644 9.84752 10.2331 9.84752Z" stroke="#C59C66" stroke-width="1.1" stroke-miterlimit="10" stroke-linecap="round" stroke-linejoin="round"/>
<path d="M10.1811 8.13715C11.1278 8.13715 11.8953 7.78908 11.8953 7.35971C11.8953 6.93035 11.1278 6.58228 10.1811 6.58228C9.23438 6.58228 8.46692 6.93035 8.46692 7.35971C8.46692 7.78908 9.23438 8.13715 10.1811 8.13715Z" stroke="#C59C66" stroke-width="1.1" stroke-miterlimit="10" stroke-linecap="round" stroke-linejoin="round"/>
<path d="M10.3889 14.7713L24.7256 1.08838" stroke="#C59C66" stroke-width="1.1" stroke-miterlimit="10" stroke-linecap="round" stroke-linejoin="round"/>
</g>
<defs>
<clipPath id="clip0">
<rect width="24.9333" height="17" fill="white"/>
</clipPath>
</defs>
</svg>
