<svg width="22" height="18" viewBox="0 0 22 18" fill="none" xmlns="http://www.w3.org/2000/svg">
<path d="M10.8038 16.7819C15.1137 16.7819 18.6076 13.2881 18.6076 8.97813C18.6076 4.6682 15.1137 1.17432 10.8038 1.17432C6.49389 1.17432 3 4.6682 3 8.97813C3 13.2881 6.49389 16.7819 10.8038 16.7819Z" stroke="#C59C66" stroke-width="1.1" stroke-miterlimit="10" stroke-linecap="round" stroke-linejoin="round"/>
<path d="M10.8038 1.30518V16.782" stroke="#C59C66" stroke-width="1.1" stroke-miterlimit="10" stroke-linecap="round" stroke-linejoin="round"/>
<path d="M5.74667 3.04909C5.74667 3.04909 8.27528 2.04636 9.10362 4.13901C9.93196 6.23165 7.44695 7.71394 5.92106 10.6785C4.48237 13.4687 6.7058 15.6921 6.7058 15.6921" stroke="#C59C66" stroke-width="1.1" stroke-miterlimit="10" stroke-linecap="round" stroke-linejoin="round"/>
<path d="M15.8611 3.04909C15.8611 3.04909 13.3325 2.04636 12.5042 4.13901C11.7195 6.23165 14.1609 7.71394 15.6868 10.6785C17.1254 13.4687 14.902 15.6921 14.902 15.6921" stroke="#C59C66" stroke-width="1.1" stroke-miterlimit="10" stroke-linecap="round" stroke-linejoin="round"/>
<path d="M18.6077 9.76295C18.2154 6.53679 14.902 4.00818 10.8475 4.00818C6.79302 4.00818 3.43607 6.53679 3.0437 9.76295" stroke="#C59C66" stroke-width="1.1" stroke-miterlimit="10" stroke-linecap="round" stroke-linejoin="round"/>
</svg>
