<svg width="39" height="31" viewBox="0 0 39 31" fill="none" xmlns="http://www.w3.org/2000/svg">
<g opacity="0.55">
<path d="M25.0369 1.46316C25.0369 1.18883 24.7658 0.91449 24.4042 0.91449H13.8291C13.5579 0.91449 13.2867 1.18883 13.2867 1.46316V5.57821H25.0369V1.46316V1.46316Z" stroke="white" stroke-width="1.3" stroke-miterlimit="10" stroke-linecap="round" stroke-linejoin="round"/>
<path d="M13.2868 5.57825H2.44043C1.62696 5.57825 0.90387 6.30981 0.90387 7.22426V28.531C0.90387 29.3541 1.62696 30.0856 2.44043 30.0856H35.7929C36.6064 30.0856 37.3295 29.3541 37.3295 28.531V7.22426C37.3295 6.40126 36.6064 5.66969 35.7929 5.66969H25.037" stroke="white" stroke-width="1.3" stroke-miterlimit="10" stroke-linecap="round" stroke-linejoin="round"/>
<path d="M22.9581 16.0944C24.6054 16.0944 25.9408 14.7433 25.9408 13.0767C25.9408 11.4101 24.6054 10.059 22.9581 10.059C21.3108 10.059 19.9753 11.4101 19.9753 13.0767C19.9753 14.7433 21.3108 16.0944 22.9581 16.0944Z" stroke="white" stroke-width="1.3" stroke-miterlimit="10" stroke-linecap="round" stroke-linejoin="round"/>
<path d="M9.49054 5.94397V29.9027" stroke="white" stroke-width="1.3" stroke-miterlimit="10" stroke-linecap="round" stroke-linejoin="round"/>
<path d="M28.7428 5.94397V29.9027" stroke="white" stroke-width="1.3" stroke-miterlimit="10" stroke-linecap="round" stroke-linejoin="round"/>
</g>
</svg>
